# AST/ASF file generated using VICON BodyLanguage
# -----------------------------------------------
:version 1.10
:name VICON
:units
  mass 1.0
  length 0.45
  angle deg
:documentation
   .ast/.asf automatically generated from VICON data using
   VICON BodyBuilder and BodyLanguage model FoxedUp or BRILLIANT.MOD
:root
   order TX TY TZ RX RY RZ
   axis XYZ
   position 0 0 0  
   orientation 0 0 0 
:bonedata
  begin
     id 1 
     name lhipjoint
     direction 0.693937 -0.600361 0.397515 
     length 2.37164 
     axis 0 0 0  XYZ
  end
  begin
     id 2 
     name lfemur
     direction 0.34202 -0.939693 0  
     length 6.18497  
     axis 0 0 20  XYZ
    dof rx ry rz
    limits (-160.0 20.0)
           (-70.0 70.0)
           (-60.0 70.0)
  end
  begin
     id 3 
     name ltibia
     direction 0.34202 -0.939693 0   
     length 6.91601   
     axis 0 0 20   XYZ
    dof rx
    limits (-10.0 170.0)
  end
  begin
     id 4 
     name lfoot
     direction 0.0978718 -0.2689 0.958182   
     length 1.81453   
     axis -90 7.62852e-016 20   XYZ
    dof rx rz
    limits (-45.0 90.0)
           (-70.0 20.0)
  end
  begin
     id 5 
     name ltoes
     direction 1.53569e-011 -4.21951e-011 1   
     length 0.912052   
     axis -90 7.62852e-016 20   XYZ
    dof rx
    limits (-90.0 20.0)
  end
  begin
     id 6 
     name rhipjoint
     direction -0.643996 -0.637876 0.422354   
     length 2.23216  
     axis 0 0 0  XYZ 
  end
  begin
     id 7 
     name rfemur
     direction -0.34202 -0.939693 0   
     length 6.15404   
     axis 0 0 -20   XYZ
    dof rx ry rz
    limits (-160.0 20.0)
           (-70.0 70.0)
           (-70.0 60.0)
  end
  begin
     id 8 
     name rtibia
     direction -0.34202 -0.939693 0   
     length 6.86744   
     axis 0 0 -20   XYZ
    dof rx
    limits (-10.0 170.0)
 end
 begin
     id 9 
     name rfoot
     direction -0.118701 -0.326127 0.937844   
     length 1.9243  
     axis -90 -7.62852e-016 -20   XYZ
    dof rx rz
    limits (-45.0 90.0)
           (-20.0 70.0)
  end
  begin
     id 10 
     name rtoes
     direction -1.5356e-011 -4.2181e-011 1   
     length 0.958865   
     axis -90 -7.62852e-016 -20   XYZ
    dof rx
    limits (-90.0 20.0)
  end
  begin
     id 11 
     name lowerback
     direction 0.0310826 0.968686 -0.246334   
     length 2.00021   
     axis 0 0 0   XYZ
    dof rx ry rz
    limits (-20.0 45.0)
           (-30.0 30.0)
           (-30.0 30.0)
  end
  begin
     id 12 
     name upperback
     direction -0.0152834 0.999474 -0.0286152   
     length 2.03728   
     axis 0 0 0   XYZ
    dof rx ry rz
    limits (-20.0 45.0)
           (-30.0 30.0)
           (-30.0 30.0)
  end
  begin
     id 13 
     name thorax
     direction -0.0323701 0.996236 0.0804149   
     length 2.16   
     axis 0 0 0   XYZ
    dof rx ry rz
    limits (-20.0 45.0)
           (-30.0 30.0)
           (-30.0 30.0)
  end
  begin
     id 14 
     name lowerneck
     direction 0.0307935 0.982251 0.185027   
     length 1.43558   
     axis 0 0 0   XYZ
    dof rx ry rz
    limits (-20.0 45.0)
           (-30.0 30.0)
           (-30.0 30.0)
  end
  begin
     id 15 
     name upperneck
     direction -0.0927153 0.994775 0.0427454   
     length 1.44603   
     axis 0 0 0   XYZ
    dof rx ry rz
    limits (-20.0 45.0)
           (-30.0 30.0)
           (-30.0 30.0)
  end
  begin
     id 16
     name head
     direction -0.0341265 0.999406 -0.00472033  
     length 1.45931  
     axis 0 0 0   XYZ
    dof rx ry rz
    limits (-20.0 45.0)
           (-30.0 30.0)
           (-30.0 30.0)
  end
  begin
     id 17 
     name lclavicle
     direction 0.820755 0.555306 -0.134151  
     length 2.66075  
     axis 0 0 0   XYZ
    dof ry rz
    limits (-20.0 10.0)
           (0.0 20.0)
  end
  begin
     id 18 
     name lhumerus
     direction 1 -4.48971e-011 5.24853e-027   
     length 5.0546   
     axis -180 -30 -90   XYZ
    dof rx ry rz
    limits (-60.0 90.0)
           (-90.0 90.0)
           (-90.0 90.0)
  end
  begin
     id 19
     name lradius
     direction 1 -4.48971e-011 2.76575e-028   
     length 3.39013   
     axis -180 -30 -90   XYZ
    dof rx
    limits (-10.0 170.0)
  end
  begin
     id 20
     name lwrist
     direction 1 -4.48939e-011 -2.27826e-027   
     length 1.69507   
     axis 2.17013e-015 90 90   XYZ
    dof ry
    limits (-180.0 0.0)
 end
  begin
     id 21 
     name lhand
     direction 1 -4.49009e-011 -4.55652e-027   
     length 0.572425   
     axis 2.90745e-015 90 90   XYZ
    dof rx rz
    limits (-90.0 90.0)
           (-45.0 45.0)
  end
  begin
     id 22 
     name lfingers
     direction 1 -4.48955e-011 -9.11303e-027   
     length 0.461504   
     axis 5.81489e-015 90 90   XYZ
    dof rx
    limits (0.0 90.0)
  end
  begin
     id 23
     name lthumb
     direction 0.707107 -6.34929e-011 0.707107   
     length 0.66263   
     axis -90 45 2.85299e-015   XYZ
    dof rx rz
    limits (-45.0 45.0)
           (-45.0 45.0)
  end
  begin
     id 24 
     name rclavicle
     direction -0.754477 0.632921 -0.173712   
     length 2.73081  
     axis 0 0 0   XYZ 
    dof ry rz
    limits (-10.0 20.0)
           (-20.0 0.0)
  end
  begin
     id 25 
     name rhumerus
     direction -1 -4.48969e-011 5.1496e-027  
     length 5.0701   
     axis -180 30 90   XYZ
    dof rx ry rz
    limits (-90.0 60.0)
           (-90.0 90.0)
           (-90.0 90.0)
  end
  begin
     id 26 
     name rradius
     direction -1 -4.48967e-011 -7.15624e-028   
     length 3.14957   
     axis -180 30 90   XYZ
    dof rx
    limits (-10.0 170.0)
  end
  begin
     id 27 
     name rwrist
     direction -1 -4.48938e-011 -2.27826e-027   
     length 1.57479   
     axis 2.17013e-015 -90 -90   XYZ
    dof ry
    limits (-180.0 0.0)
  end
  begin
     id 28
     name rhand
     direction -1 -4.49008e-011 -4.55652e-027   
     length 0.718191   
     axis 2.90745e-015 -90 -90   XYZ
    dof rx rz
    limits (-90.0 90.0)
           (-45.0 45.0)
  end
  begin
     id 29
     name rfingers
     direction -1 -4.48953e-011 -9.11303e-027   
     length 0.579024   
     axis 5.81489e-015 -90 -90   XYZ
    dof rx
    limits (0.0 90.0)
  end
  begin
     id 30
     name rthumb
     direction -0.707107 -6.34937e-011 0.707107   
     length 0.831366   
     axis -90 -45 -2.85299e-015   XYZ
    dof rx rz
    limits (-45.0 45.0)
           (-45.0 45.0)
  end
:hierarchy
  begin
    root lhipjoint rhipjoint lowerback
    lhipjoint lfemur
    lfemur ltibia
    ltibia lfoot
    lfoot ltoes
    rhipjoint rfemur
    rfemur rtibia
    rtibia rfoot
    rfoot rtoes
    lowerback upperback
    upperback thorax
    thorax lowerneck lclavicle rclavicle
    lowerneck upperneck
    upperneck head
    lclavicle lhumerus
    lhumerus lradius
    lradius lwrist
    lwrist lhand lthumb
    lhand lfingers
    rclavicle rhumerus
    rhumerus rradius
    rradius rwrist
    rwrist rhand rthumb
    rhand rfingers
  end

#!OML:ASF H:\Male1\Project 1\Capture day 1\Session 1\Male1.ASF
:FULLY-SPECIFIED
:DEGREES
23
root 42.2351 14.9613 0.164719 173.631 -85.4258 -174.548
lowerback 3.35141 1.57635 -3.44942
upperback 2.88001 1.96967 1.07507
thorax 0.927651 0.902656 2.98697
lowerneck -10.0172 3.86155 6.45792
upperneck 15.267 4.71637 -3.8849
head 6.54324 2.29471 -1.89768
rclavicle -9.79014e-015 -5.96354e-016
rhumerus -31.5224 4.48278 -89.3229
rradius 30.029
rwrist -17.0146
rhand -15.9162 0.667375
rfingers 7.12502
rthumb 10.281 -29.0613
lclavicle -9.79014e-015 -5.96354e-016
lhumerus -26.9546 5.35876 89.8103
lradius 25.1504
lwrist -10.4948
lhand -18.7871 11.2036
lfingers 7.12502
lthumb 7.51064 41.0502
rfemur -10.5248 13.8694 27.499
rtibia 37.1629
rfoot -42.1716 -28.9188
rtoes -11.7037
lfemur -12.4402 -19.2978 -23.7467
ltibia 39.1943
lfoot -32.4259 24.7742
ltoes 2.57735
24
root 42.2274 14.96 0.151105 176.543 -85.4584 -177.423
lowerback 3.76476 1.02434 -2.05844
upperback 2.79389 1.25803 -0.0100901
thorax 0.712354 0.579481 1.10376
lowerneck -10.4241 4.35057 6.28882
upperneck 15.5518 5.19511 -2.7517
head 6.69904 2.60325 -1.45304
rclavicle 8.82107e-015 1.98785e-016
rhumerus -31.263 4.57473 -91.0836
rradius 29.7653
rwrist -16.605
rhand -15.9795 0.781736
rfingers 7.12502
rthumb 10.2199 -28.95
lclavicle 8.82107e-015 1.98785e-016
lhumerus -27.0801 5.71331 87.8241
lradius 25.339
lwrist -10.195
lhand -18.2329 11.6926
lfingers 7.12502
lthumb 8.04552 41.5195
rfemur -10.7366 13.579 27.247
rtibia 37.3852
rfoot -42.0569 -28.6549
rtoes -11.5308
lfemur -12.3908 -19.298 -23.9487
ltibia 39.1063
lfoot -32.4003 24.8132
ltoes 2.38746
25
root 42.2178 14.9548 0.134526 178.115 -85.4161 -179.019
lowerback 3.55738 1.54216 -3.51258
upperback 2.84627 1.91551 0.811425
thorax 0.788736 0.879855 2.74632
lowerneck -9.96257 3.89034 6.60985
upperneck 15.3369 4.7287 -3.86345
head 6.56049 2.31089 -1.91527
rclavicle -4.41209e-015 -3.59055e-015
rhumerus -31.5155 3.96401 -89.4704
rradius 29.9665
rwrist -16.983
rhand -15.8293 0.895532
rfingers 7.12502
rthumb 10.3648 -28.829
lclavicle -4.41209e-015 -3.59055e-015
lhumerus -27.0319 5.39064 89.2754
lradius 25.7456
lwrist -11.6401
lhand -18.1204 12.3294
lfingers 7.12502
lthumb 8.15413 42.1521
rfemur -10.8075 13.4097 27.1752
rtibia 37.5785
rfoot -41.9565 -28.4835
rtoes -11.6363
lfemur -12.283 -19.34 -24.0445
ltibia 39.0354
lfoot -32.4967 24.8068
ltoes 2.47864
26
root 42.2089 14.9484 0.117771 180.139 -85.3274 -181.118
lowerback 3.98505 1.03852 -2.07214
upperback 2.86078 1.2679 -0.250589
thorax 0.662865 0.584346 0.861335
lowerneck -10.2508 4.38243 6.66149
upperneck 15.4316 5.23728 -3.06453
head 6.65142 2.62079 -1.61359
rclavicle -8.67198e-015 1.03368e-014
rhumerus -31.0839 3.73842 -91.0373
rradius 29.5548
rwrist -16.8647
rhand -15.1003 1.4848
rfingers 7.12502
rthumb 11.068 -28.2034
lclavicle -8.67198e-015 1.03368e-014
lhumerus -27.1073 5.67279 87.312
lradius 26.1481
lwrist -12.0213
lhand -17.2924 13.2859
lfingers 7.12502
lthumb 8.95317 43.0759
rfemur -10.7963 13.261 27.0748
rtibia 37.7339
rfoot -41.8606 -28.1945
rtoes -11.4247
lfemur -12.1339 -19.3106 -24.2018
ltibia 38.9882
lfoot -32.5015 24.8372
ltoes 2.35253
27
root 42.196 14.9459 0.0973277 182.342 -85.301 -183.284
lowerback 3.76527 1.51299 -3.53326
upperback 2.90768 1.86643 0.533259
thorax 0.747711 0.855656 2.46877
lowerneck -9.8921 4.01253 6.98107
upperneck 15.1791 4.8804 -4.12236
head 6.52249 2.38601 -2.04601
rclavicle 1.25545e-014 5.31749e-015
rhumerus -31.344 3.35699 -89.5344
rradius 29.7932
rwrist -17.2054
rhand -14.9489 1.81876
rfingers 7.12502
rthumb 11.214 -27.8615
lclavicle 1.25545e-014 5.31749e-015
lhumerus -26.9589 5.7343 88.529
lradius 25.7855
lwrist -12.546
lhand -17.2569 13.8824
lfingers 7.12502
lthumb 8.98749 43.671
rfemur -10.8656 13.2843 26.9766
rtibia 37.8631
rfoot -41.934 -28.0007
rtoes -10.9427
lfemur -12.0938 -19.2587 -24.3121
ltibia 38.939
lfoot -32.3698 24.9313
ltoes 1.67602
28
root 42.1801 14.9431 0.0765662 183.992 -85.3186 -184.88
lowerback 3.4929 1.98732 -4.93694
upperback 2.94329 2.47497 1.34169
thorax 0.807564 1.13191 4.07892
lowerneck -9.55948 3.59241 7.29386
upperneck 15.0468 4.44849 -5.16866
head 6.4256 2.11628 -2.47862
rclavicle -7.05686e-015 4.57205e-015
rhumerus -31.7275 2.99293 -88.0128
rradius 30.1737
rwrist -17.5523
rhand -14.9448 1.85284
rfingers 7.12502
rthumb 11.218 -27.8272
lclavicle -7.05686e-015 4.57205e-015
lhumerus -26.8544 5.84695 89.7706
lradius 25.389
lwrist -13.3223
lhand -17.3798 14.043
lfingers 7.12502
lthumb 8.86881 43.8366
rfemur -10.9164 13.3155 26.9253
rtibia 37.9622
rfoot -42.0234 -27.9189
rtoes -10.8701
lfemur -12.0625 -19.3045 -24.3694
ltibia 38.8861
lfoot -32.3067 24.9846
ltoes 1.29944
29
root 42.1521 14.9393 0.0595284 186.131 -84.8653 -186.921
lowerback 2.8905 2.61705 -6.36747
upperback 3.0261 3.32048 2.10937
thorax 1.02443 1.51927 5.68235
lowerneck -9.23122 3.12162 7.62898
upperneck 15.005 3.9524 -6.28606
head 6.34831 1.81168 -2.94296
rclavicle 3.60794e-014 -9.93923e-015
rhumerus -32.1438 2.56202 -86.4551
rradius 30.5798
rwrist -17.9573
rhand -15.046 1.57039
rfingers 7.12502
rthumb 11.1204 -28.115
lclavicle 3.60794e-014 -9.93923e-015
lhumerus -26.7882 5.89996 91.0643
lradius 25.1515
lwrist -14.0333
lhand -17.2642 14.3632
lfingers 7.12502
lthumb 8.98036 44.1521
rfemur -10.9719 13.3419 26.705
rtibia 38.0188
rfoot -41.6425 -27.7618
rtoes -11.6606
lfemur -11.9778 -19.2515 -24.5848
ltibia 38.8625
lfoot -32.6755 25.11
ltoes 1.86971
30
root 42.1213 14.9386 0.0426108 187.657 -84.4571 -188.229
lowerback 2.76774 2.11615 -4.82884
upperback 3.01547 2.69105 1.04577
thorax 1.28256 1.23083 3.73348
lowerneck -9.39676 3.69384 7.47356
upperneck 15.0612 4.61138 -5.44138
head 6.42302 2.1849 -2.58368
rclavicle -2.23633e-014 2.18663e-015
rhumerus -31.8279 3.03327 -88.3793
rradius 30.3879
rwrist -17.4433
rhand -15.5784 1.21677
rfingers 7.12502
rthumb 10.6068 -28.4955
lclavicle -2.23633e-014 2.18663e-015
lhumerus -26.8528 6.6446 88.9659
lradius 25.3153
lwrist -13.6697
lhand -16.6936 14.965
lfingers 7.12502
lthumb 9.53101 44.7294
rfemur -11.094 13.3616 26.5115
rtibia 38.021
rfoot -41.2324 -27.6834
rtoes -12.5955
lfemur -12.063 -19.0853 -24.6894
ltibia 38.8899
lfoot -32.9716 25.164
ltoes 2.1313
31
root 42.1083 14.9316 0.0202083 187.203 -84.3573 -187.79
lowerback 3.11067 1.83077 -3.86941
upperback 2.98961 2.3117 0.511684
thorax 1.15614 1.06467 2.64202
lowerneck -9.3945 3.96113 7.54195
upperneck 15.0683 4.91481 -5.13935
head 6.44116 2.35866 -2.46987
rclavicle 2.77677e-015 -8.24956e-015
rhumerus -31.6694 2.93041 -89.2592
rradius 30.1573
rwrist -17.2402
rhand -15.2954 1.60904
rfingers 7.12502
rthumb 10.8798 -28.0891
lclavicle 2.77677e-015 -8.24956e-015
lhumerus -26.8746 7.18978 87.7336
lradius 25.3892
lwrist -13.1932
lhand -16.0864 16.1956
lfingers 7.12502
lthumb 10.1168 45.9323
rfemur -10.9659 13.334 26.6349
rtibia 37.9851
rfoot -41.2417 -27.6002
rtoes -12.8578
lfemur -12.0413 -18.8762 -24.5677
ltibia 38.9803
lfoot -32.9746 25.0301
ltoes 2.11116
